<svg width="64" height="64" viewBox="-1 -1 66 66" fill="none" xmlns="http://www.w3.org/2000/svg" role="img" aria-label="Clavis">
  <defs>
    <linearGradient id="mark-f" x1="12" y1="2" x2="54" y2="62" gradientUnits="userSpaceOnUse">
      <stop offset="0" stop-color="#6E86F5"/><stop offset="0.52" stop-color="#3B5BF0"/><stop offset="1" stop-color="#2A43C8"/>
    </linearGradient>
  </defs>
  <path d="M64 32 L63.94 42.56 L63.78 46.44 L63.5 49.31 L63.11 51.65 L62.6 53.63 L61.97 55.35 L61.23 56.86 L60.35 58.18 L59.34 59.34 L58.18 60.35 L56.86 61.23 L55.35 61.97 L53.63 62.6 L51.65 63.11 L49.31 63.5 L46.44 63.78 L42.56 63.94 L32 64 L21.44 63.94 L17.56 63.78 L14.69 63.5 L12.35 63.11 L10.37 62.6 L8.65 61.97 L7.14 61.23 L5.82 60.35 L4.66 59.34 L3.65 58.18 L2.77 56.86 L2.03 55.35 L1.4 53.63 L0.89 51.65 L0.5 49.31 L0.22 46.44 L0.06 42.56 L0 32 L0.06 21.44 L0.22 17.56 L0.5 14.69 L0.89 12.35 L1.4 10.37 L2.03 8.65 L2.77 7.14 L3.65 5.82 L4.66 4.66 L5.82 3.65 L7.14 2.77 L8.65 2.03 L10.37 1.4 L12.35 0.89 L14.69 0.5 L17.56 0.22 L21.44 0.06 L32 0 L42.56 0.06 L46.44 0.22 L49.31 0.5 L51.65 0.89 L53.63 1.4 L55.35 2.03 L56.86 2.77 L58.18 3.65 L59.34 4.66 L60.35 5.82 L61.23 7.14 L61.97 8.65 L62.6 10.37 L63.11 12.35 L63.5 14.69 L63.78 17.56 L63.94 21.44 L64 32 Z" fill="url(#mark-f)"/>
  <circle cx="32" cy="27" r="9" fill="#FFFFFF"/>
  <path d="M28.5 33 L35.5 33 L38 46.5 Q38.2 48 36.7 48 L27.3 48 Q25.8 48 26 46.5 Z" fill="#FFFFFF"/>
</svg>
